<svg width="112" height="30" viewBox="0 0 112 30" fill="none" xmlns="http://www.w3.org/2000/svg">
<path d="M16.6 8.04V22H13.8V12.92L10.06 22H7.94L4.18 12.92V22H1.38V8.04H4.56L9 18.42L13.44 8.04H16.6ZM29.6683 16.22C29.6683 16.62 29.6416 16.98 29.5883 17.3H21.4883C21.5549 18.1 21.8349 18.7267 22.3283 19.18C22.8216 19.6333 23.4283 19.86 24.1483 19.86C25.1883 19.86 25.9283 19.4133 26.3683 18.52H29.3883C29.0683 19.5867 28.4549 20.4667 27.5483 21.16C26.6416 21.84 25.5283 22.18 24.2083 22.18C23.1416 22.18 22.1816 21.9467 21.3283 21.48C20.4883 21 19.8283 20.3267 19.3483 19.46C18.8816 18.5933 18.6483 17.5933 18.6483 16.46C18.6483 15.3133 18.8816 14.3067 19.3483 13.44C19.8149 12.5733 20.4683 11.9067 21.3083 11.44C22.1483 10.9733 23.1149 10.74 24.2083 10.74C25.2616 10.74 26.2016 10.9667 27.0283 11.42C27.8683 11.8733 28.5149 12.52 28.9683 13.36C29.4349 14.1867 29.6683 15.14 29.6683 16.22ZM26.7683 15.42C26.7549 14.7 26.4949 14.1267 25.9883 13.7C25.4816 13.26 24.8616 13.04 24.1283 13.04C23.4349 13.04 22.8483 13.2533 22.3683 13.68C21.9016 14.0933 21.6149 14.6733 21.5083 15.42H26.7683ZM36.052 10.74C36.8787 10.74 37.6054 10.9067 38.232 11.24C38.8587 11.56 39.352 11.98 39.712 12.5V10.92H42.532V22.08C42.532 23.1067 42.3254 24.02 41.912 24.82C41.4987 25.6333 40.8787 26.2733 40.052 26.74C39.2254 27.22 38.2254 27.46 37.052 27.46C35.4787 27.46 34.1854 27.0933 33.172 26.36C32.172 25.6267 31.6054 24.6267 31.472 23.36H34.252C34.3987 23.8667 34.712 24.2667 35.192 24.56C35.6854 24.8667 36.2787 25.02 36.972 25.02C37.7854 25.02 38.4454 24.7733 38.952 24.28C39.4587 23.8 39.712 23.0667 39.712 22.08V20.36C39.352 20.88 38.852 21.3133 38.212 21.66C37.5854 22.0067 36.8654 22.18 36.052 22.18C35.1187 22.18 34.2654 21.94 33.492 21.46C32.7187 20.98 32.1054 20.3067 31.652 19.44C31.212 18.56 30.992 17.5533 30.992 16.42C30.992 15.3 31.212 14.3067 31.652 13.44C32.1054 12.5733 32.712 11.9067 33.472 11.44C34.2454 10.9733 35.1054 10.74 36.052 10.74ZM39.712 16.46C39.712 15.78 39.5787 15.2 39.312 14.72C39.0454 14.2267 38.6854 13.8533 38.232 13.6C37.7787 13.3333 37.292 13.2 36.772 13.2C36.252 13.2 35.772 13.3267 35.332 13.58C34.892 13.8333 34.532 14.2067 34.252 14.7C33.9854 15.18 33.852 15.7533 33.852 16.42C33.852 17.0867 33.9854 17.6733 34.252 18.18C34.532 18.6733 34.892 19.0533 35.332 19.32C35.7854 19.5867 36.2654 19.72 36.772 19.72C37.292 19.72 37.7787 19.5933 38.232 19.34C38.6854 19.0733 39.0454 18.7 39.312 18.22C39.5787 17.7267 39.712 17.14 39.712 16.46ZM44.5467 16.42C44.5467 15.3 44.7667 14.3067 45.2067 13.44C45.6601 12.5733 46.2667 11.9067 47.0267 11.44C47.8001 10.9733 48.6601 10.74 49.6067 10.74C50.4334 10.74 51.1534 10.9067 51.7667 11.24C52.3934 11.5733 52.8934 11.9933 53.2667 12.5V10.92H56.0867V22H53.2667V20.38C52.9067 20.9 52.4067 21.3333 51.7667 21.68C51.1401 22.0133 50.4134 22.18 49.5867 22.18C48.6534 22.18 47.8001 21.94 47.0267 21.46C46.2667 20.98 45.6601 20.3067 45.2067 19.44C44.7667 18.56 44.5467 17.5533 44.5467 16.42ZM53.2667 16.46C53.2667 15.78 53.1334 15.2 52.8667 14.72C52.6001 14.2267 52.2401 13.8533 51.7867 13.6C51.3334 13.3333 50.8467 13.2 50.3267 13.2C49.8067 13.2 49.3267 13.3267 48.8867 13.58C48.4467 13.8333 48.0867 14.2067 47.8067 14.7C47.5401 15.18 47.4067 15.7533 47.4067 16.42C47.4067 17.0867 47.5401 17.6733 47.8067 18.18C48.0867 18.6733 48.4467 19.0533 48.8867 19.32C49.3401 19.5867 49.8201 19.72 50.3267 19.72C50.8467 19.72 51.3334 19.5933 51.7867 19.34C52.2401 19.0733 52.6001 18.7 52.8667 18.22C53.1334 17.7267 53.2667 17.14 53.2667 16.46Z" fill="#14AB55"/>
<path d="M58.1414 15C58.1414 13.6267 58.4481 12.4 59.0614 11.32C59.6881 10.2267 60.5347 9.38 61.6014 8.78C62.6814 8.16667 63.8881 7.86 65.2214 7.86C66.7814 7.86 68.1481 8.26 69.3214 9.06C70.4947 9.86 71.3147 10.9667 71.7814 12.38H68.5614C68.2414 11.7133 67.7881 11.2133 67.2014 10.88C66.6281 10.5467 65.9614 10.38 65.2014 10.38C64.3881 10.38 63.6614 10.5733 63.0214 10.96C62.3947 11.3333 61.9014 11.8667 61.5414 12.56C61.1947 13.2533 61.0214 14.0667 61.0214 15C61.0214 15.92 61.1947 16.7333 61.5414 17.44C61.9014 18.1333 62.3947 18.6733 63.0214 19.06C63.6614 19.4333 64.3881 19.62 65.2014 19.62C65.9614 19.62 66.6281 19.4533 67.2014 19.12C67.7881 18.7733 68.2414 18.2667 68.5614 17.6H71.7814C71.3147 19.0267 70.4947 20.14 69.3214 20.94C68.1614 21.7267 66.7947 22.12 65.2214 22.12C63.8881 22.12 62.6814 21.82 61.6014 21.22C60.5347 20.6067 59.6881 19.76 59.0614 18.68C58.4481 17.6 58.1414 16.3733 58.1414 15ZM79.093 22.18C78.0263 22.18 77.0663 21.9467 76.213 21.48C75.3596 21 74.6863 20.3267 74.193 19.46C73.713 18.5933 73.473 17.5933 73.473 16.46C73.473 15.3267 73.7196 14.3267 74.213 13.46C74.7196 12.5933 75.4063 11.9267 76.273 11.46C77.1396 10.98 78.1063 10.74 79.173 10.74C80.2396 10.74 81.2063 10.98 82.073 11.46C82.9396 11.9267 83.6196 12.5933 84.113 13.46C84.6196 14.3267 84.873 15.3267 84.873 16.46C84.873 17.5933 84.613 18.5933 84.093 19.46C83.5863 20.3267 82.893 21 82.013 21.48C81.1463 21.9467 80.173 22.18 79.093 22.18ZM79.093 19.74C79.5996 19.74 80.073 19.62 80.513 19.38C80.9663 19.1267 81.3263 18.7533 81.593 18.26C81.8596 17.7667 81.993 17.1667 81.993 16.46C81.993 15.4067 81.713 14.6 81.153 14.04C80.6063 13.4667 79.933 13.18 79.133 13.18C78.333 13.18 77.6596 13.4667 77.113 14.04C76.5796 14.6 76.313 15.4067 76.313 16.46C76.313 17.5133 76.573 18.3267 77.093 18.9C77.6263 19.46 78.293 19.74 79.093 19.74ZM91.8469 22.18C90.7802 22.18 89.8202 21.9467 88.9669 21.48C88.1135 21 87.4402 20.3267 86.9469 19.46C86.4669 18.5933 86.2269 17.5933 86.2269 16.46C86.2269 15.3267 86.4735 14.3267 86.9669 13.46C87.4735 12.5933 88.1602 11.9267 89.0269 11.46C89.8935 10.98 90.8602 10.74 91.9269 10.74C92.9935 10.74 93.9602 10.98 94.8269 11.46C95.6935 11.9267 96.3735 12.5933 96.8669 13.46C97.3735 14.3267 97.6269 15.3267 97.6269 16.46C97.6269 17.5933 97.3669 18.5933 96.8469 19.46C96.3402 20.3267 95.6469 21 94.7669 21.48C93.9002 21.9467 92.9269 22.18 91.8469 22.18ZM91.8469 19.74C92.3535 19.74 92.8269 19.62 93.2669 19.38C93.7202 19.1267 94.0802 18.7533 94.3469 18.26C94.6135 17.7667 94.7469 17.1667 94.7469 16.46C94.7469 15.4067 94.4669 14.6 93.9069 14.04C93.3602 13.4667 92.6869 13.18 91.8869 13.18C91.0869 13.18 90.4135 13.4667 89.8669 14.04C89.3335 14.6 89.0669 15.4067 89.0669 16.46C89.0669 17.5133 89.3269 18.3267 89.8469 18.9C90.3802 19.46 91.0469 19.74 91.8469 19.74ZM102.481 12.52C102.841 12.0133 103.334 11.5933 103.961 11.26C104.601 10.9133 105.327 10.74 106.141 10.74C107.087 10.74 107.941 10.9733 108.701 11.44C109.474 11.9067 110.081 12.5733 110.521 13.44C110.974 14.2933 111.201 15.2867 111.201 16.42C111.201 17.5533 110.974 18.56 110.521 19.44C110.081 20.3067 109.474 20.98 108.701 21.46C107.941 21.94 107.087 22.18 106.141 22.18C105.327 22.18 104.607 22.0133 103.981 21.68C103.367 21.3467 102.867 20.9267 102.481 20.42V27.28H99.6808V10.92H102.481V12.52ZM108.341 16.42C108.341 15.7533 108.201 15.18 107.921 14.7C107.654 14.2067 107.294 13.8333 106.841 13.58C106.401 13.3267 105.921 13.2 105.401 13.2C104.894 13.2 104.414 13.3333 103.961 13.6C103.521 13.8533 103.161 14.2267 102.881 14.72C102.614 15.2133 102.481 15.7933 102.481 16.46C102.481 17.1267 102.614 17.7067 102.881 18.2C103.161 18.6933 103.521 19.0733 103.961 19.34C104.414 19.5933 104.894 19.72 105.401 19.72C105.921 19.72 106.401 19.5867 106.841 19.32C107.294 19.0533 107.654 18.6733 107.921 18.18C108.201 17.6867 108.341 17.1 108.341 16.42Z" fill="white"/>
</svg>
