<svg width="142" height="27" viewBox="0 0 142 27" fill="none" xmlns="http://www.w3.org/2000/svg">
<path d="M20.9359 0.552721V19H17.2359V7.00134L12.2937 19H9.49222L4.52361 7.00134V19H0.823585V0.552721H5.02576L10.8929 14.2693L16.7601 0.552721H20.9359ZM38.2048 11.3621C38.2048 11.8907 38.1696 12.3664 38.0991 12.7892H27.3954C27.4835 13.8464 27.8535 14.6745 28.5054 15.2735C29.1574 15.8726 29.959 16.1721 30.9105 16.1721C32.2848 16.1721 33.2626 15.5819 33.8441 14.4014H37.8348C37.4119 15.8109 36.6015 16.9738 35.4034 17.89C34.2053 18.7886 32.7341 19.2379 30.9898 19.2379C29.5802 19.2379 28.3116 18.9295 27.184 18.3129C26.074 17.6786 25.2019 16.7888 24.5676 15.6435C23.9509 14.4983 23.6426 13.1769 23.6426 11.6792C23.6426 10.164 23.9509 8.83373 24.5676 7.68849C25.1842 6.54324 26.0476 5.66228 27.1576 5.04561C28.2676 4.42894 29.545 4.1206 30.9898 4.1206C32.3817 4.1206 33.6238 4.42013 34.7162 5.01918C35.8262 5.61823 36.6807 6.47276 37.2798 7.58277C37.8965 8.67516 38.2048 9.93493 38.2048 11.3621ZM34.3726 10.3049C34.355 9.3535 34.0114 8.59588 33.3419 8.03206C32.6724 7.45063 31.8531 7.15991 30.884 7.15991C29.9678 7.15991 29.1926 7.44182 28.5583 8.00563C27.9416 8.55183 27.5628 9.31826 27.4219 10.3049H34.3726ZM46.6405 4.1206C47.7329 4.1206 48.6932 4.34084 49.5213 4.78132C50.3494 5.20418 51.0013 5.75919 51.477 6.44634V4.35846H55.2035V19.1057C55.2035 20.4624 54.9304 21.6693 54.3842 22.7265C53.838 23.8012 53.0187 24.6469 51.9263 25.2636C50.8339 25.8979 49.5125 26.2151 47.962 26.2151C45.8829 26.2151 44.1739 25.7305 42.8348 24.7615C41.5134 23.7924 40.7645 22.471 40.5883 20.7972H44.2619C44.4558 21.4667 44.8698 21.9953 45.5041 22.3829C46.156 22.7881 46.9401 22.9907 47.8563 22.9907C48.931 22.9907 49.8032 22.6648 50.4727 22.0129C51.1422 21.3786 51.477 20.4095 51.477 19.1057V16.8328C51.0013 17.52 50.3406 18.0926 49.4948 18.5507C48.6667 19.0088 47.7153 19.2379 46.6405 19.2379C45.4072 19.2379 44.2796 18.9207 43.2577 18.2864C42.2357 17.6521 41.4253 16.7624 40.8262 15.6171C40.2448 14.4543 39.9541 13.124 39.9541 11.6264C39.9541 10.1464 40.2448 8.83373 40.8262 7.68849C41.4253 6.54324 42.2269 5.66228 43.2312 5.04561C44.2531 4.42894 45.3896 4.1206 46.6405 4.1206ZM51.477 11.6792C51.477 10.7807 51.3008 10.0142 50.9484 9.37993C50.596 8.72802 50.1203 8.23468 49.5213 7.89992C48.9222 7.54753 48.2791 7.37134 47.592 7.37134C46.9048 7.37134 46.2705 7.53872 45.6891 7.87349C45.1077 8.20825 44.632 8.70159 44.2619 9.3535C43.9096 9.98779 43.7334 10.7454 43.7334 11.6264C43.7334 12.5073 43.9096 13.2826 44.2619 13.9521C44.632 14.604 45.1077 15.1062 45.6891 15.4585C46.2882 15.8109 46.9224 15.9871 47.592 15.9871C48.2791 15.9871 48.9222 15.8197 49.5213 15.485C50.1203 15.1326 50.596 14.6393 50.9484 14.005C51.3008 13.3531 51.477 12.5778 51.477 11.6792ZM57.8657 11.6264C57.8657 10.1464 58.1565 8.83373 58.7379 7.68849C59.3369 6.54324 60.1386 5.66228 61.1429 5.04561C62.1648 4.42894 63.3013 4.1206 64.5522 4.1206C65.6446 4.1206 66.596 4.34084 67.4065 4.78132C68.2346 5.2218 68.8953 5.77681 69.3887 6.44634V4.35846H73.1151V19H69.3887V16.8593C68.913 17.5464 68.2522 18.119 67.4065 18.5771C66.5784 19.0176 65.6182 19.2379 64.5258 19.2379C63.2924 19.2379 62.1648 18.9207 61.1429 18.2864C60.1386 17.6521 59.3369 16.7624 58.7379 15.6171C58.1565 14.4543 57.8657 13.124 57.8657 11.6264ZM69.3887 11.6792C69.3887 10.7807 69.2125 10.0142 68.8601 9.37993C68.5077 8.72802 68.032 8.23468 67.433 7.89992C66.8339 7.54753 66.1908 7.37134 65.5037 7.37134C64.8165 7.37134 64.1822 7.53872 63.6008 7.87349C63.0194 8.20825 62.5436 8.70159 62.1736 9.3535C61.8212 9.98779 61.6451 10.7454 61.6451 11.6264C61.6451 12.5073 61.8212 13.2826 62.1736 13.9521C62.5436 14.604 63.0194 15.1062 63.6008 15.4585C64.1998 15.8109 64.8341 15.9871 65.5037 15.9871C66.1908 15.9871 66.8339 15.8197 67.433 15.485C68.032 15.1326 68.5077 14.6393 68.8601 14.005C69.2125 13.3531 69.3887 12.5778 69.3887 11.6792Z" fill="#14AB55"/>
<path d="M75.7774 11.6792C75.7774 10.164 76.0858 8.84254 76.7024 7.71492C77.3191 6.56967 78.1736 5.68871 79.266 5.07204C80.3584 4.43775 81.6094 4.1206 83.0189 4.1206C84.8337 4.1206 86.3313 4.5787 87.5118 5.4949C88.7099 6.39348 89.5116 7.66206 89.9168 9.30064H85.9261C85.7146 8.66635 85.3534 8.17301 84.8425 7.82063C84.3492 7.45063 83.7325 7.26563 82.9925 7.26563C81.9353 7.26563 81.0984 7.65325 80.4817 8.42849C79.8651 9.18612 79.5567 10.2697 79.5567 11.6792C79.5567 13.0711 79.8651 14.1547 80.4817 14.93C81.0984 15.6876 81.9353 16.0664 82.9925 16.0664C84.4901 16.0664 85.468 15.3969 85.9261 14.0578H89.9168C89.5116 15.6435 88.7099 16.9033 87.5118 17.8371C86.3137 18.771 84.8161 19.2379 83.0189 19.2379C81.6094 19.2379 80.3584 18.9295 79.266 18.3129C78.1736 17.6786 77.3191 16.7976 76.7024 15.67C76.0858 14.5247 75.7774 13.1945 75.7774 11.6792ZM99.1289 19.2379C97.7194 19.2379 96.4508 18.9295 95.3232 18.3129C94.1955 17.6786 93.3058 16.7888 92.6538 15.6435C92.0196 14.4983 91.7024 13.1769 91.7024 11.6792C91.7024 10.1816 92.0284 8.86016 92.6803 7.71492C93.3498 6.56967 94.2572 5.68871 95.4024 5.07204C96.5477 4.43775 97.8251 4.1206 99.2346 4.1206C100.644 4.1206 101.922 4.43775 103.067 5.07204C104.212 5.68871 105.111 6.56967 105.763 7.71492C106.432 8.86016 106.767 10.1816 106.767 11.6792C106.767 13.1769 106.423 14.4983 105.736 15.6435C105.067 16.7888 104.15 17.6786 102.987 18.3129C101.842 18.9295 100.556 19.2379 99.1289 19.2379ZM99.1289 16.0135C99.7984 16.0135 100.424 15.855 101.005 15.5378C101.604 15.2031 102.08 14.7097 102.432 14.0578C102.785 13.4059 102.961 12.613 102.961 11.6792C102.961 10.2873 102.591 9.22136 101.851 8.48135C101.129 7.72373 100.239 7.34491 99.1818 7.34491C98.1246 7.34491 97.2348 7.72373 96.5124 8.48135C95.8077 9.22136 95.4553 10.2873 95.4553 11.6792C95.4553 13.0711 95.7989 14.1459 96.486 14.9035C97.1908 15.6435 98.0717 16.0135 99.1289 16.0135ZM115.982 19.2379C114.573 19.2379 113.304 18.9295 112.177 18.3129C111.049 17.6786 110.159 16.7888 109.507 15.6435C108.873 14.4983 108.556 13.1769 108.556 11.6792C108.556 10.1816 108.882 8.86016 109.534 7.71492C110.203 6.56967 111.111 5.68871 112.256 5.07204C113.401 4.43775 114.679 4.1206 116.088 4.1206C117.498 4.1206 118.775 4.43775 119.92 5.07204C121.066 5.68871 121.964 6.56967 122.616 7.71492C123.286 8.86016 123.62 10.1816 123.62 11.6792C123.62 13.1769 123.277 14.4983 122.59 15.6435C121.92 16.7888 121.004 17.6786 119.841 18.3129C118.696 18.9295 117.41 19.2379 115.982 19.2379ZM115.982 16.0135C116.652 16.0135 117.277 15.855 117.859 15.5378C118.458 15.2031 118.934 14.7097 119.286 14.0578C119.638 13.4059 119.815 12.613 119.815 11.6792C119.815 10.2873 119.445 9.22136 118.705 8.48135C117.982 7.72373 117.092 7.34491 116.035 7.34491C114.978 7.34491 114.088 7.72373 113.366 8.48135C112.661 9.22136 112.309 10.2873 112.309 11.6792C112.309 13.0711 112.652 14.1459 113.34 14.9035C114.044 15.6435 114.925 16.0135 115.982 16.0135ZM130.034 6.47276C130.51 5.80324 131.162 5.24823 131.99 4.80775C132.836 4.34965 133.796 4.1206 134.871 4.1206C136.122 4.1206 137.249 4.42894 138.254 5.04561C139.276 5.66228 140.077 6.54324 140.659 7.68849C141.258 8.81611 141.557 10.1287 141.557 11.6264C141.557 13.124 141.258 14.4543 140.659 15.6171C140.077 16.7624 139.276 17.6521 138.254 18.2864C137.249 18.9207 136.122 19.2379 134.871 19.2379C133.796 19.2379 132.845 19.0176 132.017 18.5771C131.206 18.1367 130.545 17.5817 130.034 16.9121V25.9772H126.334V4.35846H130.034V6.47276ZM137.778 11.6264C137.778 10.7454 137.593 9.98779 137.223 9.3535C136.871 8.70159 136.395 8.20825 135.796 7.87349C135.214 7.53872 134.58 7.37134 133.893 7.37134C133.224 7.37134 132.589 7.54753 131.99 7.89992C131.409 8.23468 130.933 8.72802 130.563 9.37993C130.211 10.0318 130.034 10.7983 130.034 11.6792C130.034 12.5602 130.211 13.3266 130.563 13.9785C130.933 14.6304 131.409 15.1326 131.99 15.485C132.589 15.8197 133.224 15.9871 133.893 15.9871C134.58 15.9871 135.214 15.8109 135.796 15.4585C136.395 15.1062 136.871 14.604 137.223 13.9521C137.593 13.3002 137.778 12.525 137.778 11.6264Z" fill="#042613"/>
</svg>
