<svg width="25" height="24" fill="none" xmlns="http://www.w3.org/2000/svg"><g clip-path="url(#a)" fill-rule="evenodd" clip-rule="evenodd" fill="#171717"><path d="M12.402 2.85 3.409 6.445 3.13 5.75l.279.696-.01.006a.39.39 0 0 0-.14.187c-.008.026-.009.04-.009.041V10c0 .136.114.25.25.25h18c.136 0 .25-.114.25-.25V6.68c0-.001 0-.015-.01-.04a.39.39 0 0 0-.139-.188l-.01-.006-8.993-3.597a.532.532 0 0 0-.197 0Zm.098-1.51c.194 0 .431.027.649.114l9 3.6-.273.681.272-.681c.344.137.611.39.79.656.179.265.312.606.312.97V10c0 .964-.786 1.75-1.75 1.75h-18c-.964 0-1.75-.786-1.75-1.75V6.68c0-.364.133-.705.312-.97.179-.266.446-.52.79-.656l9-3.6c.217-.087.454-.114.648-.114ZM3.5 18.75a.253.253 0 0 0-.25.25v2.25h18.5V19a.253.253 0 0 0-.25-.25h-18ZM1.75 19c0-.964.786-1.75 1.75-1.75h18c.964 0 1.75.786 1.75 1.75v3a.75.75 0 0 1-.75.75h-20a.75.75 0 0 1-.75-.75v-3Z"/><path d="M4.5 10.25a.75.75 0 0 1 .75.75v7a.75.75 0 0 1-1.5 0v-7a.75.75 0 0 1 .75-.75ZM8.5 10.25a.75.75 0 0 1 .75.75v7a.75.75 0 0 1-1.5 0v-7a.75.75 0 0 1 .75-.75ZM12.5 10.25a.75.75 0 0 1 .75.75v7a.75.75 0 0 1-1.5 0v-7a.75.75 0 0 1 .75-.75ZM16.5 10.25a.75.75 0 0 1 .75.75v7a.75.75 0 0 1-1.5 0v-7a.75.75 0 0 1 .75-.75ZM20.5 10.25a.75.75 0 0 1 .75.75v7a.75.75 0 0 1-1.5 0v-7a.75.75 0 0 1 .75-.75ZM.75 22a.75.75 0 0 1 .75-.75h22a.75.75 0 0 1 0 1.5h-22A.75.75 0 0 1 .75 22ZM10.25 7a2.25 2.25 0 1 1 4.5 0 2.25 2.25 0 0 1-4.5 0Zm2.25-.75a.75.75 0 1 0 0 1.5.75.75 0 0 0 0-1.5Z"/></g><defs><clipPath id="a"><path fill="#fff" d="M.5 0h24v24H.5z"/></clipPath></defs></svg>