<svg width="40" height="40" fill="none" xmlns="http://www.w3.org/2000/svg"><g clip-path="url(#a)" fill-rule="evenodd" clip-rule="evenodd" fill="#14AB55"><path opacity=".987" d="M19.258-.04h1.406c.453.149.896.344 1.328.587l3.047 2.89.586.196a31.884 31.884 0 0 1 4.57-.508c1.321.254 2.246.996 2.774 2.227.287 1.491.6 2.975.937 4.453.122.145.265.262.43.351a41.806 41.806 0 0 1 3.672 2.031c1.21 1.235 1.483 2.654.82 4.258a26.61 26.61 0 0 0-1.602 3.516l.04.312a127.57 127.57 0 0 1 1.796 3.829c.322 1.41-.03 2.622-1.054 3.632a41.805 41.805 0 0 1-3.672 2.032c-.165.089-.308.206-.43.351a38.535 38.535 0 0 0-.781 3.906c-.593 1.997-1.934 2.921-4.023 2.774a93.099 93.099 0 0 1-3.477-.508c-.191.07-.387.136-.586.195l-3.047 2.891a7.394 7.394 0 0 1-1.328.586h-1.406a7.395 7.395 0 0 1-1.328-.586l-3.047-2.89a6.807 6.807 0 0 1-.547-.196c-1.348.22-2.702.403-4.063.547-1.582-.068-2.689-.823-3.32-2.266-.287-1.491-.6-2.976-.937-4.453a1.469 1.469 0 0 0-.43-.351 41.787 41.787 0 0 1-3.672-2.032C.704 26.5.43 25.08 1.094 23.477a26.608 26.608 0 0 0 1.601-3.516l-.039-.313c-.62-1.266-1.22-2.542-1.797-3.828-.32-1.41.03-2.622 1.055-3.633a41.788 41.788 0 0 1 3.672-2.03c.165-.09.308-.207.43-.352.327-1.286.587-2.589.78-3.907.593-1.996 1.935-2.92 4.024-2.773 1.16.162 2.32.331 3.477.508l.586-.196L17.93.547a7.405 7.405 0 0 1 1.328-.586Zm-4.61 9.688c2.509-.16 4.11.96 4.805 3.36.254 2.472-.8 4.1-3.164 4.883-2.194.329-3.795-.492-4.805-2.461-.723-2.152-.163-3.884 1.68-5.196a5.822 5.822 0 0 1 1.484-.586Zm12.735 1.563c1.095.116 1.473.69 1.133 1.719L12.93 28.516c-.944.348-1.517.022-1.72-.977a2.28 2.28 0 0 1 .196-.547l15.586-15.586c.142-.059.272-.124.39-.195Zm-3.281 10.703c2.002-.066 3.448.794 4.335 2.578.724 2.152.164 3.884-1.68 5.195-2.165 1.073-4.027.695-5.585-1.132-1.357-2.4-.927-4.419 1.289-6.055a6.89 6.89 0 0 1 1.64-.586Z"/><path opacity=".952" d="M15.039 11.836c1.598.023 2.34.83 2.226 2.422-.576 1.437-1.579 1.84-3.007 1.21-.901-.743-1.096-1.641-.586-2.695.343-.487.798-.8 1.367-.937Z"/><path opacity=".953" d="M24.102 24.18c1.216-.167 2.01.327 2.382 1.484.07 1.78-.777 2.548-2.539 2.305-1.026-.424-1.455-1.192-1.289-2.305.239-.746.72-1.24 1.446-1.484Z"/></g><defs><clipPath id="a"><path fill="#fff" d="M0 0h40v40H0z"/></clipPath></defs></svg>