<svg width="40" height="40" fill="none" xmlns="http://www.w3.org/2000/svg"><g clip-path="url(#a)" fill-rule="evenodd" clip-rule="evenodd" fill="#14AB55"><path opacity=".994" d="M19.96-.04h2.188c.337.169.585.43.743.782.052 7.11.052 14.219 0 21.328-.118.43-.391.703-.82.82-7.11.053-14.22.053-21.329 0a1.552 1.552 0 0 1-.781-.742v-2.187C.893 11.78 5.007 5.803 12.305 2.03a23.238 23.238 0 0 1 7.656-2.07Z"/><path opacity=".986" d="M39.961 19.805v.78h-8.828c-.52-3.263-2.212-5.698-5.078-7.304a.981.981 0 0 1-.352-.586 187.537 187.537 0 0 1 0-7.656c.215-.528.606-.814 1.172-.86 6.241 1.997 10.382 6.111 12.422 12.344.298 1.09.52 2.184.664 3.282Z"/><path opacity=".984" d="M39.96 22.852v.937c-.885 6.058-3.932 10.68-9.14 13.867a20.311 20.311 0 0 1-7.03 2.305h-.938v-8.828c3.282-.488 5.716-2.18 7.304-5.078a9.931 9.931 0 0 0 .977-3.203h8.828Z"/><path opacity=".986" d="M20.586 39.961h-.781c-6.556-.893-11.386-4.252-14.492-10.078a20.91 20.91 0 0 1-1.133-3.008c.045-.566.331-.957.86-1.172 2.551-.052 5.103-.052 7.655 0a.981.981 0 0 1 .586.352c1.606 2.866 4.041 4.559 7.305 5.078v8.828Z"/></g><defs><clipPath id="a"><path fill="#fff" d="M0 0h40v40H0z"/></clipPath></defs></svg>