<svg width="40" height="40" fill="none" xmlns="http://www.w3.org/2000/svg"><path fill-rule="evenodd" clip-rule="evenodd" d="M19-1a9 9 0 0 1 8.672 6.584l.104.41 3.74-.934a2 2 0 0 1 2.466 1.68L34 7v3.62a13 13 0 0 1 2.728 3.764l.276.616H38a2 2 0 0 1 1.986 1.766L40 17v6a2.001 2.001 0 0 1-.89 1.664l-.216.124-2.336 1.17a13 13 0 0 1-4.04 4.65l-.518.348V33a2 2 0 0 1-1.766 1.986L30 35h-6a2 2 0 0 1-1.986-1.766L22 33h-2a2 2 0 0 1-1.766 1.986L18 35h-6a2 2 0 0 1-1.986-1.766L10 33v-2.044a13 13 0 0 1-5.708-8.202 6 6 0 0 1-4.28-5.386L0 17v-1a2 2 0 0 1 3.986-.234L4 16v1c.003.299.063.575.18.83a13 13 0 0 1 5.876-8.822A9 9 0 0 1 19-1Zm9 16a2 2 0 1 0 0 4 2 2 0 0 0 0-4ZM19 3a5 5 0 0 0-4.956 4.338A13 13 0 0 1 17 7h6.754l.14-.034A5 5 0 0 0 19 3Z" fill="#14AB55"/></svg>