<svg width="24" height="24" viewBox="0 0 24 24" fill="none" xmlns="http://www.w3.org/2000/svg">
<path d="M13.1847 6.15445C13.1847 6.38333 13.1847 7.12932 13.1847 8.18915H16.8286L16.4335 11.4374H13.1847C13.1847 16.4469 13.1847 23.1598 13.1847 23.1598H8.87247C8.87247 23.1598 8.87247 16.5357 8.87247 11.4374H6.62549V8.18915H8.87247C8.87247 6.90097 8.87247 5.98498 8.87247 5.72994C8.87247 4.51479 8.78092 3.93822 9.29725 2.99659C9.81384 2.055 11.271 0.810411 13.7912 0.840375C16.3121 0.87143 17.3746 1.11394 17.3746 1.11394L16.8286 4.5758C16.8286 4.5758 15.2189 4.15076 14.4288 4.30224C13.6397 4.45377 13.1847 4.93983 13.1847 6.15445Z" fill="#171717"/>
</svg>
