<svg width="25" height="24" fill="none" xmlns="http://www.w3.org/2000/svg"><path fill-rule="evenodd" clip-rule="evenodd" d="M1.5 12a1 1 0 0 1 1-1h3a1 1 0 1 1 0 2h-3a1 1 0 0 1-1-1ZM18.5 12a1 1 0 0 1 1-1h3a1 1 0 1 1 0 2h-3a1 1 0 0 1-1-1ZM12.5 1a1 1 0 0 1 1 1v3a1 1 0 1 1-2 0V2a1 1 0 0 1 1-1ZM12.5 18a1 1 0 0 1 1 1v3a1 1 0 1 1-2 0v-3a1 1 0 0 1 1-1Z" fill="#171717"/><path fill-rule="evenodd" clip-rule="evenodd" d="M12.5 6a6 6 0 1 0 0 12 6 6 0 0 0 0-12Zm-8 6a8 8 0 1 1 16 0 8 8 0 0 1-16 0Z" fill="#171717"/></svg>