<svg width="36" height="40" fill="none" xmlns="http://www.w3.org/2000/svg"><path opacity=".992" fill-rule="evenodd" clip-rule="evenodd" d="M17.492-.04h.938A1733.864 1733.864 0 0 0 34.21 4.376c.606.111.983.463 1.133 1.055.57 4.522.649 9.054.234 13.593a31.503 31.503 0 0 1-1.719 7.657 18.535 18.535 0 0 1-3.593 5.703c-3.284 3.562-7.23 6.088-11.836 7.578h-.938c-5.81-1.865-10.459-5.303-13.945-10.313A21.076 21.076 0 0 1 .969 22.93a46.588 46.588 0 0 1-.899-9.532c.011-2.666.18-5.322.508-7.968.15-.592.527-.944 1.133-1.055 5.277-1.45 10.537-2.92 15.781-4.414Zm8.203 11.33c.429-.054.82.038 1.172.273l1.524 1.523c.33.479.356.974.078 1.484a1193.045 1193.045 0 0 1-11.524 11.446 1.26 1.26 0 0 1-1.25-.157l-7.07-7.07c-.274-.537-.248-1.058.078-1.562l1.446-1.446c.619-.477 1.218-.45 1.796.078l4.493 4.493 8.71-8.711.547-.352Z" fill="#14AB55"/></svg>