<svg width="20" height="21" fill="none" xmlns="http://www.w3.org/2000/svg"><mask id="a" style="mask-type:alpha" maskUnits="userSpaceOnUse" x="0" y="0" width="20" height="21"><path fill="#D9D9D9" d="M0 .5h20v20H0z"/></mask><g mask="url(#a)"><path d="m10 15.73-3.458 2.082a.757.757 0 0 1-.48.125.805.805 0 0 1-.437-.166.998.998 0 0 1-.291-.365.728.728 0 0 1-.042-.49l.917-3.937-3.063-2.646a.798.798 0 0 1-.229-.896.893.893 0 0 1 .25-.374.866.866 0 0 1 .458-.188l4.042-.354L9.23 4.812a.748.748 0 0 1 .322-.375.893.893 0 0 1 .448-.125c.153 0 .302.042.448.125a.748.748 0 0 1 .323.375l1.563 3.709 4.041.354c.195.028.348.09.459.188a.893.893 0 0 1 .28.843.798.798 0 0 1-.26.427l-3.062 2.646.917 3.938a.729.729 0 0 1-.042.49.998.998 0 0 1-.292.364.805.805 0 0 1-.437.166.757.757 0 0 1-.48-.125L10 15.73Z" fill="#FFA41B"/></g></svg>