<svg width="24" height="20" viewBox="0 0 24 20" fill="none" xmlns="http://www.w3.org/2000/svg">
<path d="M21.5243 5.11509C21.5338 5.32607 21.5386 5.53804 21.5386 5.75095C21.5386 12.2451 16.5951 19.7331 7.557 19.7331C4.78158 19.7331 2.19816 18.9194 0.0234375 17.5251C0.408375 17.5707 0.799031 17.594 1.19587 17.594C3.49842 17.594 5.61703 16.8084 7.29942 15.49C5.14847 15.4506 3.33398 14.0297 2.70858 12.0773C3.00895 12.1349 3.31645 12.1657 3.63342 12.1657C4.08108 12.1657 4.51542 12.1054 4.92797 11.9932C2.68008 11.5417 0.985781 9.5557 0.985781 7.17473C0.985781 7.15382 0.985781 7.13339 0.986297 7.11295C1.64878 7.48078 2.40633 7.70179 3.2123 7.72743C1.89352 6.84637 1.02619 5.3422 1.02619 3.63703C1.02619 2.73646 1.26806 1.89243 1.69148 1.16671C4.11525 4.13981 7.73559 6.0959 11.8199 6.30121C11.7362 5.94145 11.6925 5.5665 11.6925 5.18109C11.6925 2.46745 13.8928 0.26709 16.6065 0.26709C18.0208 0.26709 19.2973 0.863996 20.1936 1.81875C21.3133 1.59871 22.3645 1.18954 23.314 0.62634C22.9471 1.77407 22.1686 2.73689 21.1536 3.34518C22.1477 3.22636 23.0954 2.96217 23.9765 2.57151C23.3178 3.55673 22.4843 4.42214 21.5243 5.11509Z" fill="#171717"/>
</svg>
